<svg width="849" height="557" viewBox="0 0 849 557" fill="none" xmlns="http://www.w3.org/2000/svg">
<path d="M849 556.001H0V0H849V556.001Z" fill="white"/>
<path d="M253.942 352.644C253.942 352.644 280.949 358.207 279.584 363.08C278.22 367.951 249.946 354.749 249.946 354.749C249.946 354.749 229.099 373.063 226.198 382.399C226.198 382.399 256.645 378.167 254.101 382.56C251.558 386.955 220.084 392.801 220.084 392.801C220.084 392.801 205.772 414.455 218.332 423.976C230.892 433.498 240.53 430.298 242.88 427.182C245.229 424.068 254.337 401.653 257.04 403.432C259.744 405.211 258.11 422.186 251.916 429.503C251.916 429.503 279.108 429.714 283.057 417.073C287.007 404.433 280.931 397.552 283.518 389.782C286.102 382.015 290.485 377.353 290.961 381.957C291.436 386.56 284.678 398.737 287.375 406.957C290.072 415.18 291.238 421.421 298.358 411.088C305.479 400.758 312.554 379.891 305.419 372.238C305.111 371.904 304.814 371.587 304.528 371.281C305.156 371.823 305.419 372.238 305.419 372.238C307.536 370.659 314.753 369.936 320.192 369.608C321.092 369.613 322.365 369.558 324.12 369.421C324.898 369.394 325.532 369.374 325.974 369.366C337.792 369.51 354.409 378.746 354.409 378.746L356.085 376.599C340.695 364.073 322.246 367.551 322.246 367.551C308.187 368.954 298.288 364.584 298.288 364.584C298.288 364.584 295.067 337.832 273.993 341.129C273.993 341.129 260.258 345.038 253.942 352.644" fill="#56A576"/>
<path d="M610.017 127.226C602.826 101.132 557.997 109.286 557.997 109.286C557.997 109.286 527.556 154.953 518.707 156.043C509.85 157.129 536.966 112.005 536.966 112.005C519.813 110.376 476.093 131.031 476.093 131.031C476.093 131.031 478.857 184.311 470 183.223C461.151 182.136 470 135.927 470 135.927C453.4 140.818 437.905 159.848 437.905 159.848C418.536 190.834 460.041 213.668 460.041 213.668C460.041 213.668 460.594 232.152 448.973 253.354V253.354C448.973 253.354 446.349 257.269 443.683 263.923H448.212C448.579 262.731 448.984 261.579 449.439 260.472L449.446 260.452L449.465 260.404C449.776 259.716 450.223 258.739 450.775 257.548L450.779 257.543L450.783 257.538C452.165 254.879 453.1 252.914 453.691 251.496L453.695 251.483C457.837 243.135 463.805 232.258 467.789 229.978C467.789 229.978 467.289 229.285 466.819 227.938C467.13 228.588 467.452 229.266 467.789 229.978C475.536 246.287 514.277 249.005 535.86 244.656C557.444 240.306 548.034 234.326 536.413 224.62C524.792 214.915 500.44 217.473 493.246 213.668C486.051 209.862 496.567 206.057 510.956 207.144C525.345 208.231 532.539 222.366 555.785 224.541C579.028 226.715 596.737 183.767 596.737 183.767C580.69 188.66 551.912 179.961 550.802 174.526C549.697 169.088 592.311 169.631 598.949 168.001C605.594 166.368 617.215 153.324 610.017 127.226" fill="#56A576"/>
<path d="M180.236 129.146C190.146 113.567 217.668 127.539 217.668 127.539C217.668 127.539 228.312 163.129 233.853 165.547C239.394 167.969 230.801 133.374 230.801 133.374C242.286 135.632 266.582 157.524 266.582 157.524C266.582 157.524 254.104 191.643 260.081 192.647C266.058 193.653 269.561 161.886 269.561 161.886C279.379 168.277 285.643 183.651 285.643 183.651C292.031 207.553 260.458 214.375 260.458 214.375C260.458 214.375 256.393 226.29 259.703 242.328H259.703C259.703 242.328 260.624 245.383 261.025 250.226L258.081 249.35C258.079 248.503 258.045 247.674 257.974 246.868L257.972 246.854L257.969 246.818C257.905 246.312 257.811 245.589 257.688 244.708L257.688 244.702L257.687 244.7C257.321 242.703 257.107 241.244 257.007 240.207L257.006 240.199C255.985 233.966 254.282 225.737 252.15 223.485C252.15 223.485 252.614 223.132 253.189 222.346C252.857 222.71 252.512 223.088 252.15 223.485C243.842 232.593 218.1 226.869 204.934 219.866C191.768 212.863 199.085 210.792 208.589 206.728C218.094 202.663 233.419 209.038 238.861 207.954C244.303 206.869 238.227 202.36 228.65 200.283C219.073 198.21 211.561 206.01 196.007 202.93C180.453 199.847 177.543 168.489 177.543 168.489C187.001 174.777 207.462 174.685 209.271 171.363C211.081 168.041 183.256 160.151 179.263 157.808C175.271 155.462 170.327 144.728 180.236 129.146" fill="#56A576"/>
<path d="M412.971 127.281C406.034 115.935 386.029 125.654 386.029 125.654C386.029 125.654 377.898 151.158 373.874 152.832C369.853 154.505 376.492 129.694 376.492 129.694C368.189 131.175 350.405 146.641 350.405 146.641C350.405 146.641 358.949 171.371 354.63 172.022C350.312 172.67 348.203 149.743 348.203 149.743C341.046 154.227 336.334 165.222 336.334 165.222C331.421 182.358 354.076 187.668 354.076 187.668C354.076 187.668 356.849 196.302 354.257 207.812C354.257 207.812 353.555 210 353.201 213.486L355.335 212.891C355.346 212.279 355.383 211.684 355.445 211.103V211.092L355.448 211.067C355.502 210.703 355.578 210.186 355.677 209.552V209.549V209.546C355.969 208.112 356.141 207.064 356.226 206.319V206.31C357.044 201.837 358.377 195.93 359.942 194.334C359.942 194.334 359.614 194.073 359.209 193.5C359.444 193.764 359.687 194.042 359.942 194.334C365.809 201.001 384.424 197.198 394.001 192.319C403.575 187.44 398.331 185.858 391.539 182.808C384.744 179.762 373.622 184.162 369.717 183.312C365.812 182.464 370.246 179.292 377.171 177.916C384.096 176.542 389.408 182.255 400.652 180.231C411.895 178.207 414.4 155.656 414.4 155.656C407.503 160.065 392.767 159.743 391.508 157.327C390.246 154.911 410.393 149.579 413.299 147.939C416.205 146.299 419.907 138.629 412.971 127.281Z" fill="#56A576"/>
<path d="M75.2191 427.229C74.9975 427.29 74.7137 427.351 74.3582 427.412C74.6452 427.346 74.929 427.282 75.2191 427.229Z" fill="#95C38B"/>
<path d="M358.001 269.895L344.388 428.88C344.388 428.88 342.962 438.518 350.261 438.535C362.257 438.563 409.979 438.535 409.979 438.535C409.979 438.535 400.949 436.531 401.059 432.016C401.189 426.695 416.969 268.391 416.969 268.391L358.001 269.895Z" fill="#D86713"/>
<path d="M413.854 435.652C411.493 435.658 365.911 435.8 354.228 435.652C349.134 435.588 348.243 431.204 348.2 428.366C348.178 427.004 348.353 426 348.353 426L348.707 421.866L349.61 411.336L350.408 402.028L351.432 390.071L352.293 379.98L361.966 267.009L420.934 265.505C420.934 265.505 414.289 331.755 409.589 379.98C409.062 385.354 408.564 390.505 408.103 395.314C407.953 396.849 407.809 398.35 407.667 399.812C407.231 404.374 406.835 408.564 406.487 412.264C406.303 414.216 406.136 416.025 405.983 417.685C405.383 424.19 405.032 428.344 405.027 429.133C405.024 429.592 405.064 430.02 405.143 430.417C406.111 435.485 412.968 435.652 413.854 435.652" fill="#F99746"/>
<path d="M214.789 183.383L247.944 314.209L252.484 332.126L267.926 393.06H554.817L497.899 183.383H214.789Z" fill="#F99746"/>
<path d="M214.789 183.381L210.194 184.885L261.818 397.611L267.928 393.06L214.789 183.381" fill="#F99746"/>
<path d="M261.817 397.611H546.944L554.817 393.06H267.927L261.817 397.611Z" fill="#D86713"/>
<path d="M361.946 438.596H423.679V435.716H361.946V438.596Z" fill="#F1A34F"/>
<path d="M540.918 354.424L494.366 186.156H215.491L214.789 183.381H497.899L544.294 354.049L540.918 354.424" fill="#F1A34F"/>
<path d="M407.987 397.611L407.667 399.812L349.61 411.336L350.408 402.028L350.787 397.611H407.987" fill="#D86713"/>
<path d="M382.455 435.716H368.426C362.35 435.708 357.194 435.688 354.228 435.652C349.134 435.588 348.243 431.204 348.2 428.366L405.983 417.685C405.383 424.19 405.032 428.344 405.027 429.133C405.027 429.147 405.027 429.161 405.027 429.175C405.027 429.62 405.066 430.034 405.143 430.417C406.111 435.485 412.968 435.652 413.854 435.652C412.521 435.655 397.445 435.702 382.455 435.716" fill="#EC8432"/>
<path d="M374.944 435.719C372.697 435.719 370.509 435.716 368.426 435.716H382.455C379.927 435.716 377.4 435.719 374.944 435.719" fill="#E78B37"/>
<path d="M393.956 350.612L267.928 393.06L252.485 332.125L393.956 350.612Z" fill="#ED7D2B"/>
<path d="M214.788 183.381H497.901L543.833 351.897H257.495L214.788 183.381Z" fill="#699DEE"/>
<path d="M418.979 373.199C418.161 369.066 414.088 365.716 409.88 365.716C405.675 365.716 402.927 369.066 403.745 373.199C404.563 377.331 408.635 380.68 412.843 380.68C417.049 380.68 419.797 377.331 418.979 373.199Z" fill="#D86713"/>
<path d="M530.483 344.593H265.405L235.386 227.118L233.085 218.109L231.121 210.427L226.517 192.408H487.775L492.829 210.427L494.987 218.109L497.515 227.118L530.483 344.593" fill="#E4EDF9"/>
<path d="M492.828 210.425H231.12L226.516 192.409H487.773L492.828 210.425Z" fill="#AFCDFB"/>
<path d="M237.325 200.55C237.009 199.305 237.78 198.299 239.046 198.299C240.312 198.299 241.595 199.305 241.911 200.55C242.226 201.793 241.456 202.802 240.189 202.802C238.923 202.802 237.64 201.793 237.325 200.55Z" fill="#E9F3FE"/>
<path d="M244.943 200.55C244.627 199.305 245.398 198.299 246.665 198.299C247.931 198.299 249.213 199.305 249.529 200.55C249.845 201.793 249.074 202.802 247.808 202.802C246.541 202.802 245.259 201.793 244.943 200.55Z" fill="#E9F3FE"/>
<path d="M253.147 200.55C252.831 199.305 253.602 198.299 254.868 198.299C256.134 198.299 257.417 199.305 257.733 200.55C258.048 201.793 257.278 202.802 256.011 202.802C254.745 202.802 253.462 201.793 253.147 200.55Z" fill="#E9F3FE"/>
<path d="M472.089 334.171H275.739L245.857 218.982H439.439L472.089 334.171Z" fill="#CAE0FF"/>
<path d="M497.483 245.783H452.981L444.844 218.982H489.886L497.483 245.783" fill="#D2E3FC"/>
<path d="M377.423 230.199H351.959L350.911 226.343H376.373L377.423 230.199" fill="#1C468A"/>
<path d="M422.567 230.199H380.912L379.863 226.343H421.52L422.567 230.199Z" fill="#78ACEA"/>
<path d="M381.702 240.591H336.544L335.497 236.732H380.655L381.702 240.591Z" fill="#78ACEA"/>
<path d="M409.17 240.591H385.763L384.716 236.732H408.123L409.17 240.591Z" fill="#F1A34F"/>
<path d="M385.106 258.48H359.642L358.595 254.621H384.059L385.106 258.48Z" fill="#699DEE"/>
<path d="M430.251 258.48H388.596L387.549 254.621H429.204L430.251 258.48Z" fill="#78ACEA"/>
<path d="M389.385 268.869H344.23L343.18 265.013H388.338L389.385 268.869Z" fill="white"/>
<path d="M416.853 268.869H393.449L392.399 265.013H415.806L416.853 268.869Z" fill="white"/>
<path d="M362.042 284.954H275.896L274.848 281.095H360.995L362.042 284.954Z" fill="#1C468A"/>
<path d="M393.013 284.954H367.549L366.502 281.095H391.963L393.013 284.954" fill="#699DEE"/>
<path d="M438.158 284.954H396.503L395.453 281.095H437.11L438.158 284.954Z" fill="#78ACEA"/>
<path d="M304.182 295.343H278.719L277.671 291.487H303.133L304.182 295.343Z" fill="white"/>
<path d="M397.292 295.343H352.134L351.087 291.487H396.245L397.292 295.343Z" fill="#F1A34F"/>
<path d="M349.327 295.343H307.672L306.622 291.487H348.28L349.327 295.343Z" fill="#78ACEA"/>
<path d="M424.76 295.343H401.353L400.306 291.487H423.713L424.76 295.343Z" fill="#78ACEA"/>
<path d="M371.822 313.638H285.677L284.627 309.782H370.775L371.822 313.638Z" fill="#1C468A"/>
<path d="M402.791 313.638H377.33L376.283 309.782H401.744L402.791 313.638Z" fill="#699DEE"/>
<path d="M313.963 324.03H288.499L287.452 320.174H312.913L313.963 324.03" fill="white"/>
<path d="M407.073 324.03H361.915L360.867 320.174H406.023L407.073 324.03" fill="#F1A34F"/>
<path d="M359.107 324.03H317.452L316.402 320.174H358.06L359.107 324.03" fill="#78ACEA"/>
<path d="M434.541 324.03H411.134L410.087 320.174H433.494L434.541 324.03" fill="#78ACEA"/>
<path d="M475.327 254.076L455.742 254.136L455.311 252.389L474.895 252.329L475.327 254.076Z" fill="#78ACEA"/>
<path d="M485.655 254.046L478.293 254.066L477.858 252.319L485.223 252.298L485.655 254.046Z" fill="#78ACEA"/>
<path d="M500.583 254L487.564 254.039L487.131 252.293L500.147 252.253L500.583 254Z" fill="#78ACEA"/>
<path d="M467.577 258.52L456.84 258.551L456.407 256.804L467.144 256.773L467.577 258.52Z" fill="#78ACEA"/>
<path d="M483.229 258.474L469.364 258.517L468.931 256.77L482.796 256.726L483.229 258.474Z" fill="#78ACEA"/>
<path d="M501.681 258.416L485.79 258.465L485.356 256.717L501.247 256.669L501.681 258.416Z" fill="#78ACEA"/>
<path d="M477.67 263.514L458.086 263.574L457.652 261.827L477.237 261.766L477.67 263.514" fill="#78ACEA"/>
<path d="M487.999 263.484L480.631 263.506L480.2 261.759L487.562 261.737L487.999 263.484Z" fill="#78ACEA"/>
<path d="M502.926 263.438L489.912 263.477L489.477 261.73L502.494 261.69L502.926 263.438Z" fill="#78ACEA"/>
<path d="M469.921 267.958L459.185 267.991L458.749 266.244L469.488 266.21L469.921 267.958" fill="#78ACEA"/>
<path d="M485.572 267.914L471.705 267.955L471.273 266.208L485.14 266.166L485.572 267.914Z" fill="#78ACEA"/>
<path d="M504.024 267.856L488.13 267.904L487.697 266.157L503.588 266.108L504.024 267.856Z" fill="#78ACEA"/>
<path d="M462.309 222.703L450.516 222.739L450.253 221.686L462.048 221.653L462.309 222.703" fill="white"/>
<path d="M468.532 222.683L464.097 222.697L463.838 221.644L468.271 221.63L468.532 222.683" fill="white"/>
<path d="M477.518 222.657L469.682 222.68L469.418 221.627L477.257 221.604L477.518 222.657Z" fill="white"/>
<path d="M457.645 225.378L451.178 225.398L450.918 224.344L457.382 224.325L457.645 225.378" fill="white"/>
<path d="M467.07 225.352L458.72 225.377L458.459 224.324L466.809 224.299L467.07 225.352Z" fill="white"/>
<path d="M478.178 225.316L468.608 225.348L468.35 224.293L477.917 224.264L478.178 225.316Z" fill="white"/>
<path d="M463.721 228.386L451.929 228.422L451.667 227.371L463.459 227.335L463.721 228.386Z" fill="white"/>
<path d="M469.939 228.37L465.505 228.381L465.246 227.331L469.68 227.316L469.939 228.37Z" fill="white"/>
<path d="M478.93 228.34L471.094 228.363L470.832 227.312L478.668 227.289L478.93 228.34Z" fill="white"/>
<path d="M459.054 231.064L452.588 231.083L452.327 230.029L458.794 230.01L459.054 231.064Z" fill="white"/>
<path d="M468.482 231.034L460.132 231.059L459.874 230.006L468.22 229.98L468.482 231.034Z" fill="white"/>
<path d="M479.589 231.002L470.018 231.031L469.759 229.979L479.327 229.95L479.589 231.002" fill="white"/>
<path d="M481.67 279.645L462.087 279.704L461.652 277.958L481.238 277.897L481.67 279.645" fill="#78ACEA"/>
<path d="M492.003 279.61L484.638 279.632L484.203 277.887L491.571 277.864L492.003 279.61" fill="#78ACEA"/>
<path d="M506.925 279.567L493.91 279.606L493.478 277.86L506.493 277.821L506.925 279.567Z" fill="#78ACEA"/>
<path d="M473.92 284.087L463.183 284.12L462.75 282.374L473.487 282.341L473.92 284.087Z" fill="#78ACEA"/>
<path d="M489.576 284.039L475.712 284.084L475.276 282.335L489.144 282.293L489.576 284.039Z" fill="#78ACEA"/>
<path d="M508.023 283.984L492.134 284.035L491.698 282.286L507.587 282.239L508.023 283.984" fill="#78ACEA"/>
<path d="M485.595 295.451L466.011 295.509L465.579 293.763L485.163 293.702L485.595 295.451Z" fill="#78ACEA"/>
<path d="M495.924 295.418L488.561 295.44L488.123 293.694L495.492 293.672L495.924 295.418" fill="#78ACEA"/>
<path d="M510.851 295.372L497.835 295.411L497.403 293.665L510.419 293.627L510.851 295.372" fill="#78ACEA"/>
<path d="M477.841 299.897L467.103 299.928L466.672 298.182L477.407 298.149L477.841 299.897" fill="#78ACEA"/>
<path d="M493.497 299.85L479.631 299.891L479.198 298.143L493.064 298.101L493.497 299.85Z" fill="#78ACEA"/>
<path d="M511.949 299.79L496.056 299.84L495.623 298.091L511.512 298.044L511.949 299.79Z" fill="#78ACEA"/>
<path d="M489.129 309.693L469.543 309.751L469.111 308.003L488.697 307.945L489.129 309.693Z" fill="#78ACEA"/>
<path d="M499.457 309.66L492.091 309.683L491.659 307.937L499.022 307.915L499.457 309.66Z" fill="#78ACEA"/>
<path d="M514.384 309.615L501.37 309.654L500.938 307.908L513.952 307.869L514.384 309.615Z" fill="#78ACEA"/>
<path d="M481.379 314.135L470.641 314.168L470.21 312.422L480.945 312.389L481.379 314.135Z" fill="#78ACEA"/>
<path d="M497.031 314.089L483.163 314.134L482.73 312.385L496.598 312.343L497.031 314.089Z" fill="#78ACEA"/>
<path d="M515.478 314.033L499.586 314.083L499.153 312.335L515.044 312.287L515.478 314.033" fill="#78ACEA"/>
<path d="M495.325 320.686C492.753 320.686 491.268 322.741 492.021 325.268C492.772 327.795 495.477 329.852 498.049 329.852C500.621 329.852 502.103 327.795 501.353 325.268C500.602 322.741 497.897 320.686 495.325 320.686ZM498.351 330.875C495.205 330.875 491.898 328.359 490.978 325.268C490.061 322.176 491.873 319.66 495.023 319.66C498.169 319.66 501.476 322.176 502.393 325.268C503.313 328.359 501.501 330.875 498.351 330.875" fill="#A8D29F"/>
<path d="M497.422 328.118C497.204 328.101 496.978 328.01 496.784 327.857L493.58 325.338C493.148 324.996 493.001 324.457 493.249 324.132C493.497 323.806 494.052 323.817 494.485 324.159L496.751 325.939L497.91 323.303C498.075 322.922 498.593 322.839 499.063 323.114C499.535 323.389 499.78 323.923 499.614 324.304L498.087 327.768C497.999 327.973 497.799 328.101 497.548 328.118C497.508 328.121 497.465 328.121 497.422 328.118Z" fill="#A8D29F"/>
<path d="M511.081 320.686C508.508 320.686 507.027 322.74 507.779 325.267C508.531 327.794 511.231 329.852 513.804 329.852C516.377 329.852 517.861 327.794 517.109 325.267C516.358 322.74 513.654 320.686 511.081 320.686ZM514.11 330.875C510.963 330.875 507.655 328.359 506.734 325.267C505.817 322.176 507.629 319.66 510.776 319.66C513.925 319.66 517.23 322.176 518.151 325.267C519.071 328.359 517.256 330.875 514.11 330.875Z" fill="#F1A34F"/>
<path d="M512.718 326.183C512.277 326.183 511.808 325.828 511.679 325.391L510.97 323.009C510.841 322.572 511.096 322.216 511.54 322.216C511.984 322.216 512.457 322.572 512.582 323.009L513.291 325.391C513.42 325.828 513.162 326.183 512.718 326.183Z" fill="#F1A34F"/>
<path d="M513.363 328.055H513.187C512.789 328.055 512.373 327.735 512.256 327.346C512.14 326.957 512.373 326.64 512.764 326.64H512.941C513.338 326.64 513.754 326.957 513.871 327.346C513.988 327.735 513.758 328.055 513.363 328.055Z" fill="#F1A34F"/>
<path d="M479.134 237.617C477.725 237.617 476.912 238.742 477.324 240.129C477.737 241.516 479.22 242.641 480.629 242.641C482.038 242.641 482.85 241.516 482.438 240.129C482.029 238.742 480.546 237.617 479.134 237.617ZM480.795 243.203C479.068 243.203 477.256 241.825 476.752 240.129C476.248 238.433 477.244 237.055 478.968 237.055C480.694 237.055 482.506 238.433 483.011 240.129C483.515 241.825 482.521 243.203 480.795 243.203Z" fill="#A8D29F"/>
<path d="M480.283 241.691C480.165 241.682 480.041 241.633 479.932 241.549L478.177 240.167C477.941 239.982 477.858 239.686 477.994 239.506C478.133 239.329 478.437 239.334 478.673 239.52L479.914 240.498L480.549 239.053C480.641 238.844 480.928 238.798 481.185 238.948C481.442 239.099 481.578 239.393 481.483 239.601L480.65 241.5C480.6 241.613 480.49 241.682 480.351 241.691H480.283" fill="#A8D29F"/>
<path d="M470.18 237.615C468.77 237.615 467.958 238.744 468.369 240.129C468.782 241.516 470.264 242.643 471.676 242.643C473.085 242.643 473.897 241.516 473.487 240.129C473.074 238.744 471.592 237.615 470.18 237.615ZM471.842 243.203C470.116 243.203 468.302 241.825 467.798 240.129C467.294 238.433 468.287 237.054 470.014 237.054C471.74 237.054 473.554 238.433 474.058 240.129C474.561 241.825 473.568 243.203 471.842 243.203Z" fill="#A8D29F"/>
<path d="M471.331 241.691C471.212 241.683 471.087 241.634 470.98 241.549L469.223 240.167C468.988 239.979 468.907 239.686 469.04 239.506C469.179 239.327 469.484 239.333 469.721 239.521L470.959 240.498L471.597 239.051C471.687 238.843 471.974 238.797 472.23 238.948C472.488 239.099 472.624 239.393 472.531 239.6L471.696 241.5C471.644 241.611 471.537 241.683 471.397 241.691H471.331" fill="#A8D29F"/>
<path d="M460.906 237.616C459.496 237.616 458.682 238.744 459.096 240.129C459.507 241.514 460.989 242.641 462.399 242.641C463.809 242.641 464.623 241.514 464.209 240.129C463.8 238.744 462.316 237.616 460.906 237.616ZM462.564 243.202C460.84 243.202 459.028 241.823 458.525 240.129C458.02 238.432 459.013 237.056 460.74 237.056C462.467 237.056 464.277 238.432 464.782 240.129C465.285 241.823 464.291 243.202 462.564 243.202Z" fill="#A8D29F"/>
<path d="M462.057 241.692C461.935 241.683 461.809 241.633 461.704 241.549L459.948 240.167C459.712 239.98 459.629 239.684 459.768 239.505C459.902 239.326 460.206 239.335 460.445 239.519L461.687 240.496L462.321 239.053C462.412 238.843 462.696 238.796 462.955 238.947C463.214 239.1 463.347 239.391 463.256 239.6L462.418 241.499C462.372 241.611 462.261 241.683 462.125 241.692H462.057" fill="#A8D29F"/>
<path d="M487.774 237.617C486.361 237.617 485.549 238.744 485.962 240.13C486.373 241.515 487.855 242.642 489.268 242.642C490.678 242.642 491.491 241.515 491.08 240.13C490.666 238.744 489.184 237.617 487.774 237.617ZM489.434 243.202C487.71 243.202 485.896 241.823 485.392 240.13C484.887 238.433 485.881 237.054 487.608 237.054C489.335 237.054 491.146 238.433 491.651 240.13C492.155 241.823 491.159 243.202 489.434 243.202Z" fill="#F1A34F"/>
<path d="M488.674 240.632C488.431 240.632 488.173 240.434 488.101 240.195L487.711 238.89C487.639 238.651 487.783 238.456 488.026 238.456C488.269 238.456 488.527 238.651 488.596 238.89L488.983 240.195C489.055 240.434 488.917 240.632 488.674 240.632Z" fill="#F1A34F"/>
<path d="M489.026 241.654H488.93C488.714 241.654 488.483 241.479 488.42 241.267C488.357 241.055 488.483 240.878 488.702 240.878H488.798C489.011 240.878 489.243 241.055 489.306 241.267C489.369 241.479 489.243 241.654 489.026 241.654Z" fill="#F1A34F"/>
<path d="M188.033 328.361C188.033 328.361 192.751 329.551 195.749 328.664C198.748 327.774 203.91 329.234 204.741 330.307C205.572 331.38 205.267 331.808 203.783 332.178C202.3 332.55 197.046 334.752 193.592 333.476C190.139 332.203 185.634 332.156 185.634 332.156L188.033 328.361" fill="#E49963"/>
<path d="M147.262 288.104C147.262 288.104 152.561 325.105 161.337 328.419C165.667 330.054 184.803 333.76 190.463 334.132C190.463 334.132 191.85 333.028 191.512 328.53C191.512 328.53 171.463 321.3 168.615 317.366C164.376 311.514 171.246 293.461 165.927 287.965C160.608 282.466 151.65 280.106 147.262 288.104Z" fill="#4A75CB"/>
<path d="M150.324 434.804H152.883C154.194 434.804 155.267 433.751 155.267 432.461V374.139C155.267 372.852 154.194 371.798 152.883 371.798H150.324C149.012 371.798 147.939 372.852 147.939 374.139V432.461C147.939 433.751 149.012 434.804 150.324 434.804Z" fill="#2B478B"/>
<path d="M128.987 438.947C131.358 434.126 140.583 430.531 151.603 430.531C162.623 430.531 171.849 434.126 174.219 438.947H128.987Z" fill="#2B478B"/>
<path d="M135.01 422.6H168.197C168.545 422.6 168.831 422.322 168.831 421.977V420.685C168.831 420.343 168.545 420.062 168.197 420.062H135.01C134.661 420.062 134.375 420.343 134.375 420.685V421.977C134.375 422.322 134.661 422.6 135.01 422.6Z" fill="#2B478B"/>
<path d="M149.048 366.055C150.594 368.632 152.382 371.045 154.225 373.333C159.92 380.394 166.121 386.218 167.201 391.725C167.415 392.821 167.756 394.002 168.202 395.248C168.653 396.51 169.21 397.836 169.854 399.206C172.271 404.363 175.886 410.143 179.495 415.394C185.733 424.477 191.6 432.052 191.6 432.052L202.358 431.602C201.927 430.543 197.235 418.005 190.958 402.681C188.409 396.462 185.699 389.846 183.083 383.466C182.735 382.613 182.387 381.765 182.042 380.922C181.242 378.971 180.456 377.05 179.687 375.176C173.793 360.79 169.099 349.333 169.099 349.333C169.099 349.333 145.542 340.565 143.095 346.245C141.078 350.929 142.721 355.519 149.048 366.055Z" fill="#163560"/>
<path d="M191.936 430.131C191.936 430.131 192.486 438.852 194.204 438.977C194.432 438.994 202.915 438.994 202.915 438.994L213.744 438.933C213.744 438.933 213.673 436.369 210.508 435.827C207.343 435.285 202.044 433.1 200.127 428.991C198.11 424.668 191.936 430.131 191.936 430.131Z" fill="#163560"/>
<path d="M167.024 405.22C167.024 405.22 159.541 409.943 160.267 411.475C160.364 411.68 164.499 418.956 164.499 418.956L169.833 428.213C169.833 428.213 172.076 426.904 171.015 423.923C169.954 420.946 169.313 415.336 172.031 411.689C174.891 407.849 167.024 405.22 167.024 405.22Z" fill="#163560"/>
<path d="M177.561 345.43C177.561 345.43 206.717 363.264 210.018 375.423C213.319 387.583 170.685 413.521 170.685 413.521C170.685 413.521 166.009 409.467 165.184 406.496C165.184 406.496 184.455 383.816 188.635 378.732C191.202 375.61 150.675 367.923 145.724 360.356C140.773 352.791 142.545 346.425 142.545 346.425L177.561 345.43" fill="#1C468A"/>
<path d="M121.345 384.617H181.861C183.072 384.617 184.062 383.644 184.062 382.454V370.567C184.062 369.377 183.072 368.404 181.861 368.404H121.345C120.135 368.404 119.145 369.377 119.145 370.567V382.454C119.145 383.644 120.135 384.617 121.345 384.617Z" fill="#EE9849"/>
<path d="M163.476 281.763C166.38 283.528 167.98 285.771 167.98 285.771C160.897 287.573 149.153 281.123 149.153 281.123C149.153 281.123 153.713 278.115 155.402 271.502C155.488 271.168 155.566 270.826 155.634 270.476C155.856 269.361 155.993 268.154 156.018 266.853L159.272 269.717L164.683 274.479C164.683 274.479 164.56 276.455 163.883 279.855C163.766 280.448 163.631 281.084 163.476 281.763Z" fill="#E49963"/>
<path d="M141.652 314.617C142.667 328.022 141.332 348.41 142.483 351.941C143.477 354.988 154.796 353.178 159.313 352.16C160.986 351.785 163.011 351.246 165.103 350.609C170.938 348.836 177.297 346.3 177.979 344.421C178.005 344.346 178.028 344.274 178.042 344.204C178.105 343.929 178.091 343.673 178.03 343.415C177.802 342.455 176.926 341.419 176.823 339.044C176.707 336.392 176.725 333.27 176.623 329.912C176.618 329.534 176.613 329.123 176.571 328.747L176.569 328.608C176.567 328.536 176.565 328.466 176.564 328.394C176.466 324.65 176.267 320.713 176.036 316.81C175.888 314.358 175.719 311.928 175.523 309.604C175.014 303.597 174.328 298.256 173.42 294.881C171.937 289.377 168.666 285.788 165.689 283.158L163.536 281.343C161.133 281.86 158.292 281.515 155.722 280.32C152.941 279.024 151.981 278.093 151.497 278.443C145.074 283.311 140.454 298.228 141.652 314.617Z" fill="#739AF0"/>
<path d="M165.103 350.609C170.939 348.836 177.297 346.3 177.979 344.421C178.005 344.346 178.028 344.274 178.042 344.204C178.038 343.94 178.035 343.679 178.03 343.415C177.802 342.455 176.926 341.419 176.823 339.044C176.707 336.392 176.725 333.27 176.623 329.912C176.618 329.534 176.613 329.123 176.571 328.747L176.569 328.608C176.567 328.536 176.565 328.467 176.564 328.394L154.523 318.573C154.523 318.573 153.253 336.025 165.103 350.609" fill="#4A75CB"/>
<path d="M164.683 274.479C164.683 274.479 164.56 276.456 163.883 279.855C158.6 278.179 156.203 273.489 155.402 271.502C155.175 270.94 155.076 270.593 155.076 270.593C155.076 270.593 155.281 270.548 155.634 270.476C156.377 270.32 157.776 270.028 159.272 269.717L164.683 274.479" fill="#D68D5D"/>
<path d="M166.822 274.429C166.822 274.429 155.214 275.713 154.51 268.599C153.805 261.488 151.833 256.862 159.215 255.739C166.597 254.619 168.307 257.196 169.13 259.511C169.953 261.83 169.823 273.909 166.822 274.429Z" fill="#E49963"/>
<path d="M154.56 269.091C154.56 269.091 155.296 259.648 165.862 258.672C173.1 258.002 169.065 251.88 168.293 250.904C168.293 250.904 162.748 251.652 157.064 252.575C145.134 254.51 153.388 267.621 154.56 269.091" fill="#2B478B"/>
<path d="M210.749 337.632L211.766 337.957L220.411 311.82L219.395 311.495L210.749 337.632" fill="#4A75CB"/>
<path d="M182.452 335.617L211.803 336.231L211.765 337.957L182.414 337.34L182.452 335.617" fill="#4A75CB"/>
<path d="M185.606 334.049C185.606 334.049 190.16 335.742 193.241 335.186C196.321 334.627 201.287 336.634 201.993 337.793C202.698 338.95 202.347 339.342 200.831 339.55C199.315 339.756 193.846 341.377 190.556 339.737C187.267 338.096 182.795 337.563 182.795 337.563L185.606 334.049" fill="#E49963"/>
<path d="M149.601 289.622C149.601 289.622 150.715 326.971 159.065 331.216C163.185 333.309 181.788 339.067 187.373 340.048C187.373 340.048 188.875 339.1 189.044 334.594C189.044 334.594 169.929 325.236 167.539 321.019C163.983 314.744 172.838 297.542 168.168 291.504C163.498 285.465 154.86 282.146 149.601 289.622" fill="#739AF0"/>
<path d="M466.818 437.793C466.818 437.793 467.246 434.529 468.235 432.589C469.221 430.651 475.505 431.886 475.505 431.886C475.505 431.886 476.76 432.942 477.029 437.879L466.818 437.793" fill="#233862"/>
<path d="M445.417 437.748C446.894 436.861 446.053 430.259 446.053 430.259C446.053 430.259 439.174 424.855 438.228 428.991C437.283 433.131 431.694 434.991 428.513 435.496C426.317 435.847 425.638 437.042 425.425 437.748H445.417Z" fill="#233862"/>
<path d="M459.665 389.724C459.386 391.239 459.207 392.481 459.161 393.374C458.521 405.625 448.662 433.639 446.897 434.293C444.17 435.305 439.872 433.153 437.623 432.449C436.692 432.157 436.064 431.235 436.271 430.298C441.152 408.249 442.951 376.496 443.599 357.701C443.931 348.232 445.583 341.691 445.583 341.691C445.583 341.691 469.634 335.389 469.775 343.361C469.902 350.414 461.807 378.084 459.665 389.724" fill="#213F7A"/>
<path d="M459.665 389.724L443.599 357.701C443.931 348.232 445.583 341.691 445.583 341.691C445.583 341.691 469.634 335.388 469.775 343.361C469.902 350.414 461.807 378.084 459.665 389.724Z" fill="#233862"/>
<path d="M454.313 343.391L467.025 433.896C467.025 433.896 472.608 435.219 476.95 434.16C476.95 434.16 480.672 386.025 480.361 374.387C480.05 362.75 483.031 343.249 479.679 341.1C476.33 338.948 454.313 343.391 454.313 343.391Z" fill="#213F7A"/>
<path d="M480.574 320.153L482.16 341.881C482.219 342.698 481.686 343.443 480.884 343.671C479.112 344.177 477.068 344.53 473.122 345.331C469.421 346.087 464.439 346.757 458.318 346.793C448.579 346.854 444.893 343.557 444.893 343.557C444.473 343.566 445.112 341.564 445.688 332.045C445.887 328.82 446.073 324.731 446.209 319.566C446.333 314.918 446.416 309.397 446.425 302.847C446.437 294.966 458.85 286.487 459.081 286.487L459.084 286.492C459.084 287.627 460.903 289.72 463.708 289.901C467.036 290.115 471.119 288.489 471.119 286.606C471.119 286.587 477.133 296.058 479.269 306.153C479.541 307.431 479.754 308.782 479.92 310.203L479.926 310.267C479.958 310.525 479.985 310.787 480.015 311.051C480.021 311.098 480.024 311.143 480.029 311.19C480.053 311.429 480.08 311.671 480.098 311.913C480.106 311.982 480.109 312.054 480.118 312.121C480.139 312.344 480.16 312.566 480.174 312.791L480.18 312.852C480.195 313.019 480.207 313.186 480.222 313.355C480.231 313.472 480.237 313.595 480.245 313.714C480.26 313.912 480.275 314.106 480.29 314.306C480.296 314.406 480.302 314.504 480.308 314.604C480.319 314.793 480.331 314.982 480.343 315.174C480.349 315.26 480.355 315.343 480.361 315.429C480.373 315.704 480.39 315.983 480.405 316.26L480.408 316.327C480.423 316.597 480.435 316.867 480.447 317.139C480.453 317.209 480.455 317.273 480.458 317.342C480.47 317.598 480.482 317.854 480.491 318.112C480.491 318.151 480.494 318.19 480.497 318.229C480.524 318.86 480.55 319.502 480.574 320.153L480.577 320.203L480.574 320.153" fill="#2B478B"/>
<path d="M459.083 286.489C459.083 286.489 447.536 286.391 444.757 290.219C441.978 294.047 435.888 314.642 439.066 321.494C442.247 328.347 448.196 318.661 451.495 314.464C454.798 310.266 459.083 286.489 459.083 286.489" fill="#2B478B"/>
<path d="M458.967 284.756L458.973 285.929C458.973 285.929 458.646 289.596 463.244 290.13C467.839 290.666 471.323 288.701 471.199 285.871C470.782 283.68 470.328 282.176 470.299 280.364C470.288 279.688 470.334 278.974 470.461 278.168L461.552 277.992L458.933 278.415L458.967 284.756" fill="#FFB27D"/>
<path d="M458.93 278.416L458.964 284.757C459.911 285.188 460.976 285.452 462.174 285.452C466.267 285.452 468.913 282.506 470.296 280.365C470.284 279.69 470.333 278.975 470.46 278.169L461.551 277.994L458.93 278.416" fill="#E2915A"/>
<path d="M471.143 276.762C470.111 282.224 462.934 282.044 459.831 281.702C458.96 281.605 458.412 281.496 458.412 281.496C457.425 281.237 456.877 279.714 456.624 277.721C456.117 273.773 456.755 267.98 457.434 266.498C458.456 264.268 460.382 261.856 467.606 263.596C474.833 265.338 472.468 269.761 471.143 276.762" fill="#FFB27D"/>
<path d="M447.276 301.837C447.276 301.837 442.81 311.522 442.94 314.427C442.94 314.427 445.15 314.352 447.276 314.975C450.768 315.998 447.276 301.837 447.276 301.837Z" fill="#233862"/>
<path d="M455.217 261.298C455.217 261.298 458.397 261.057 462.151 259.455C465.194 258.154 469.038 259.587 470.283 260.23C470.248 260.035 470.169 259.765 469.979 259.495C469.979 259.495 470.541 259.886 470.622 260.428C470.678 260.471 470.704 260.5 470.69 260.509C470.69 260.509 471.324 260.397 471.733 260.575C471.733 260.575 471.447 260.535 471.344 260.715L471.298 260.767C476.051 263.021 476.489 270.395 474.961 272.102C473.122 274.154 470.918 278.777 470.918 278.777C470.918 278.777 470.111 277.687 470.447 275.88C470.78 274.073 469.19 274.073 467.185 273.25C465.179 272.43 466.851 270.131 465.095 268.735C463.341 267.339 456.904 268.16 456.988 267.092C454.597 266.237 455.217 261.537 455.217 261.298" fill="#233862"/>
<path d="M472.601 319.981C470.716 327.418 450.328 331.262 445.695 332.043C445.892 328.819 446.077 324.729 446.214 319.564L472.601 319.981" fill="#233862"/>
<path d="M468.122 322.401C468.316 322.401 472.654 321.764 473.433 321.383C474.207 321.003 477.763 316.04 475.435 314.767C473.108 313.497 466.862 318.584 466.862 318.584L468.122 322.401Z" fill="#FFB27D"/>
<path d="M441.74 323.874C441.74 323.874 458.515 324.769 469.776 322.401C469.776 322.401 470.059 319.204 466.521 317.786C466.521 317.786 448.973 314.133 444.757 315.151C440.543 316.168 441.74 323.874 441.74 323.874" fill="#2B478B"/>
<path d="M480.27 310.941C476.787 315.064 472.236 318.43 467.218 319.22L467.215 319.217C467.173 319.156 465.696 316.954 465.974 313.716C466.103 312.217 466.607 310.496 467.803 308.661C468.172 308.097 468.498 307.438 468.789 306.707C471.529 299.841 471.121 286.605 471.121 286.605C471.121 286.605 482.755 287.8 486.382 292.888C488.603 296.004 485.77 304.419 480.27 310.941Z" fill="#2B478B"/>
<path d="M459.833 281.701C458.961 281.604 458.412 281.496 458.412 281.496C457.427 281.237 456.878 279.714 456.623 277.72C458.469 278.168 459.315 279.566 459.666 280.164C459.824 280.431 459.858 281.034 459.833 281.701" fill="#E2915A"/>
<path d="M455.146 284.79C455.146 284.79 451.125 278.276 454.252 277.993C457.376 277.709 458.633 279.789 459.083 280.55C459.535 281.315 458.967 284.757 458.967 284.757L455.146 284.79Z" fill="#FFB27D"/>
<path d="M470.462 313.496C470.338 314.322 470.087 315.081 469.778 315.756C468.796 317.897 467.22 319.22 467.22 319.22L467.217 319.217C456.78 314.592 454.666 298.701 454.314 289.969C454.173 286.458 454.314 284.106 454.314 284.106C459.023 282.574 460.345 285.235 460.345 285.235C460.345 285.235 465.906 298.22 468.79 306.707C469.89 309.955 470.603 312.545 470.462 313.496" fill="#2B478B"/>
<path d="M480.267 310.942C476.788 315.065 472.235 318.431 467.218 319.22L467.215 319.218C456.779 314.592 454.666 298.701 454.312 289.969C454.312 289.969 459.251 307.564 465.974 313.716C467.188 314.828 468.464 315.565 469.775 315.757C469.775 315.757 478.252 313.405 480.029 311.189C480.158 311.031 480.232 310.95 480.267 310.942" fill="#233862"/>
<path d="M786.412 439.458H67.2858C66.8366 439.458 66.4691 439.096 66.4691 438.654V438.382C66.4691 437.94 66.8366 437.579 67.2858 437.579H786.412C786.861 437.579 787.228 437.94 787.228 438.382V438.654C787.228 439.096 786.861 439.458 786.412 439.458Z" fill="#2E3552"/>
<path d="M652.372 422.895C654.406 430.367 669.448 434.766 685.894 437.345H747.281C762.074 430.229 762.055 421.741 763.243 398.306C765.695 349.9 739.774 326.532 728.214 330.388C727.735 330.549 727.246 330.721 726.748 330.921C723.385 332.25 719.627 334.594 715.963 340.173C715.963 340.173 704.477 358.983 695.021 370.203C691.977 373.817 689.145 376.644 686.974 377.801C686.951 377.815 686.927 377.831 686.899 377.839C686.782 377.9 686.669 377.953 686.556 378.003C681.549 380.258 674.488 384.979 668.039 390.936H668.034C658.033 400.171 649.502 412.362 652.372 422.895" fill="#F99746"/>
<path d="M668.04 390.936C676.644 393.532 720.943 406.095 731.369 392.776C738.917 383.129 734.216 358.418 730.046 342.43C728.337 335.875 719.81 334.388 716.074 340.006C716.038 340.062 716.002 340.117 715.966 340.173C715.966 340.173 704.478 358.982 695.022 370.202C692.288 373.747 689.591 376.479 686.98 377.8C686.953 377.814 686.926 377.831 686.898 377.839C686.79 377.9 686.672 377.953 686.558 378.003C681.549 380.258 674.491 384.978 668.04 390.936" fill="#ED7D2B"/>
<path d="M700.989 329.87C700.989 329.87 697.921 334.335 696.172 343.714C694.636 351.929 693.291 354.962 691.077 356.647C688.864 358.332 676.527 363.305 676.527 363.305L677.451 365.429C677.451 365.429 695.534 363.01 697.561 360.041C699.596 357.072 707.338 339.53 706.739 335.491C706.136 331.452 700.989 329.87 700.989 329.87Z" fill="#F4A269"/>
<path d="M656.707 427.866C656.869 429.597 654.415 430.017 651.571 430.156C648.73 430.295 649.586 430.868 645.688 431.563C641.79 432.255 640.229 431.207 639.95 430.69C639.696 430.232 641.508 429.514 643.441 428.702C643.683 428.602 643.925 428.497 644.171 428.391C646.342 427.454 647.564 425.539 649.259 423.765C650.861 422.083 652.386 416.698 652.386 416.698L657.68 415.589C657.68 415.589 656.195 420.435 655.678 422.503C655.372 423.718 655.824 425.08 656.219 426.114C656.433 426.679 656.651 427.254 656.707 427.866" fill="#FFB27D"/>
<path d="M651.573 430.156C648.732 430.295 649.586 430.867 645.689 431.563C641.792 432.255 640.233 431.207 639.951 430.69C639.701 430.231 641.51 429.514 643.441 428.702L643.473 428.735C643.473 428.735 646.213 429.647 649.377 428.805C651.952 428.115 654.446 426.603 656.22 426.114C656.437 426.678 656.651 427.254 656.707 427.865C656.872 429.597 654.414 430.017 651.573 430.156Z" fill="#C65447"/>
<path d="M709.444 366.174C709.444 366.174 674.255 363.572 667.628 367.681C661.005 371.787 650.379 419.628 650.379 419.628C650.379 419.628 651.032 420.145 652.5 420.301C653.862 420.446 656.861 419.659 656.861 419.659C656.861 419.659 672.134 398.253 673.205 392.86C674.281 387.469 674.021 382.657 676.468 382.526C678.919 382.398 709.448 386.173 714.064 378.181C718.685 370.188 714.867 362.276 714.867 362.276L709.444 366.174" fill="#163560"/>
<path d="M670.173 433.417C670.338 435.149 667.88 435.571 665.039 435.711C662.194 435.849 663.054 436.419 659.155 437.114C655.26 437.806 653.695 436.759 653.415 436.242C653.164 435.783 654.976 435.065 656.907 434.254C657.15 434.154 657.393 434.048 657.636 433.945C659.81 433.005 661.028 431.09 662.725 429.317C664.331 427.634 665.85 422.252 665.85 422.252L671.149 421.141C671.149 421.141 669.659 425.986 669.144 428.054C668.839 429.272 669.288 430.632 669.688 431.665C669.902 432.23 670.12 432.805 670.173 433.417" fill="#FFB27D"/>
<path d="M665.04 435.71C662.195 435.85 663.054 436.419 659.155 437.114C655.261 437.806 653.698 436.759 653.419 436.241C653.164 435.783 654.977 435.065 656.906 434.254L656.939 434.287C656.939 434.287 659.678 435.202 662.84 434.356C665.419 433.67 667.911 432.155 669.688 431.666C669.901 432.23 670.119 432.805 670.173 433.417C670.337 435.149 667.882 435.571 665.04 435.71" fill="#C65447"/>
<path d="M716.334 368.318C716.334 368.318 685.072 369.772 678.616 374.129C672.16 378.485 663.439 426.698 663.439 426.698C663.439 426.698 664.115 427.188 665.584 427.287C666.949 427.382 669.917 426.479 669.917 426.479C669.917 426.479 684.324 404.505 685.188 399.076C686.048 393.647 685.595 388.848 688.035 388.626C690.48 388.404 721.137 391.009 725.435 382.847C729.733 374.685 716.334 368.318 716.334 368.318Z" fill="#1C468A"/>
<path d="M705.632 327.415C705.028 326.367 704.302 324.488 703.78 321.088C703.848 321.424 704.738 325.697 706.595 328.029C713.834 332.05 728.148 346.119 728.075 348.965C728.075 348.965 732.23 340.856 732.307 340.804C732.307 340.804 740.213 329.447 729.555 323.935C724.138 321.135 723.888 317.099 723.87 313.582C723.852 310.065 721.191 295.095 711.032 299.724C711.032 299.724 709.311 299.101 708.571 299.259C708.571 299.259 709.188 299.334 709.52 299.632C708.307 299.64 706.586 299.84 705.197 300.741C701.523 303.123 699.397 322.486 705.632 327.415" fill="#B5453C"/>
<path d="M717.653 324.732C717.653 324.732 714.741 324.46 711.829 324.732C709.851 324.916 707.891 325.519 706.776 325.978C704.023 327.106 704.309 331.899 710.093 331.012C715.873 330.126 718.058 326.153 717.653 324.732" fill="#FFB27D"/>
<path d="M707.016 328.228C706.985 328.244 706.192 332.348 709.979 332.184C712.463 332.078 717.823 329.123 717.351 327.032C717.127 326.04 715.246 323.463 714.868 317.578L714.418 317.697L706.813 319.701C706.813 319.701 707.148 322.073 707.306 324.316C707.438 326.201 707.447 327.997 707.016 328.228" fill="#FFB27D"/>
<path d="M706.81 319.701C706.81 319.701 707.147 322.073 707.305 324.316C711.609 323.916 713.629 319.901 714.418 317.697L706.81 319.701" fill="#F4A269"/>
<path d="M715.16 316.821C715.16 316.821 717.181 313.162 717.52 310.129C717.762 307.961 716.111 300.094 708.071 301.77C708.071 301.77 705.728 302.153 703.61 303.769C701.928 305.053 699.55 307.747 702.87 314.488L703.764 316.779L715.16 316.821Z" fill="#B5453C"/>
<path d="M705.517 321.92C705.517 321.92 715.734 321.416 715.317 315.173C714.899 308.929 715.936 304.659 709.396 304.714C702.856 304.773 701.749 307.236 701.371 309.354C700.994 311.472 702.847 321.892 705.517 321.92" fill="#FFB27D"/>
<path d="M704.74 304.867C704.74 304.867 708.028 312.009 712.393 312.812C716.752 313.612 718.538 312.362 718.538 312.362C718.538 312.362 715.073 310.013 714.085 305.576C714.085 305.576 706.609 301.242 704.74 304.867Z" fill="#B5453C"/>
<path d="M705.469 305.416C705.469 305.416 703.496 307.189 703.093 308.813C702.695 310.436 702.686 313.722 701.704 313.675C701.704 313.675 699.263 308.835 701.436 305.863C703.742 302.71 705.469 305.416 705.469 305.416" fill="#B5453C"/>
<path d="M695.295 366.697C696.121 367.668 698.703 367.965 701.459 368.413C703.63 368.763 705.913 369.205 707.535 370.142C711.216 372.265 723.25 379.444 726.775 379.118C728.142 378.99 727.887 376.427 727.056 373.025C725.756 367.653 723.027 360.192 723.027 356.948C723.027 355.177 722.428 350.988 721.629 346.197C721.562 345.811 721.495 345.422 721.428 345.027C719.846 335.714 717.653 324.733 717.653 324.733C717.653 324.733 715.205 329.976 710.434 329.976C705.667 329.976 706.775 325.979 706.775 325.979C706.775 325.979 702.424 326.482 701.397 327.569C700.369 328.656 697.761 333.357 697.242 334.638C697.242 334.638 697.14 336.27 701.249 337.046C701.249 337.046 700.249 341.474 700.128 344.427C700.043 346.606 701.647 353.431 702.107 357.676C702.268 359.18 702.29 360.362 702.045 360.895C701.727 361.582 700.696 362.263 699.525 362.933C697.202 364.265 694.312 365.544 695.295 366.697" fill="#1C468A"/>
<path d="M699.525 362.933C696.885 367.353 706.682 368.682 708.303 369.619C711.989 371.743 723.25 379.444 726.775 379.118C728.142 378.99 727.887 376.427 727.056 373.025C725.756 367.653 723.027 360.192 723.027 356.948C723.027 355.177 722.428 350.987 721.629 346.197L717.38 342.194C717.38 342.194 712.833 353.742 708.495 355.633C706.222 356.625 703.854 357.278 702.107 357.676C702.268 359.18 702.29 360.362 702.045 360.895C701.728 361.582 700.696 362.263 699.525 362.933" fill="#163560"/>
<path d="M718.955 328.188C718.955 328.188 722.585 326.022 726.095 330.131C729.604 334.237 723.602 363.6 718.4 365.107C712.626 366.783 695.939 364.84 695.939 364.84L696.262 362.277C696.262 362.277 714.023 358.932 714.761 358.001C715.5 357.067 717.111 328.664 718.955 328.188" fill="#FFB27D"/>
<path d="M717.65 324.733C717.65 324.733 725.103 325.392 727.266 327.802C729.429 330.21 730.065 336.734 730.065 336.734C730.065 336.734 723.499 341.941 715.594 339.92L717.65 324.733Z" fill="#1C468A"/>
<path d="M684.349 367.354H694.195V366.211H684.349V367.354Z" fill="#9E332E"/>
<path d="M686.441 367.198C686.344 366.82 677.391 353.009 677.391 353.009H657.467L667.461 366.828L686.441 367.198" fill="#9E332E"/>
<path d="M685.606 367.353C685.509 366.974 676.529 353.008 676.529 353.008H657.471L666.977 367.353H685.606Z" fill="#B5453C"/>
<path d="M668.801 360.229C668.999 360.787 669.621 361.241 670.189 361.241C670.757 361.241 671.062 360.787 670.868 360.229C670.671 359.667 670.049 359.214 669.481 359.214C668.913 359.214 668.608 359.667 668.801 360.229Z" fill="#9E332E"/>
<path d="M697.71 362.127C697.71 362.127 691.927 361.026 691.272 361.301C690.622 361.576 686.984 364.782 687.356 365.424C687.728 366.066 689.222 366.525 690.9 365.975C692.578 365.424 696.216 365.149 696.871 364.326C697.522 363.5 697.71 362.127 697.71 362.127Z" fill="#FFB27D"/>
<path d="M574.403 202.9H392.423L378.479 158.037H560.455L574.403 202.9" fill="#FAFDFF"/>
<path d="M553.532 173.205L555.2 178.573C555.933 180.935 554.569 182.864 552.164 182.864H401.397C398.996 182.864 396.424 180.935 395.691 178.573L394.027 173.205C393.29 170.847 394.658 168.913 397.059 168.913H547.829C550.23 168.913 552.798 170.847 553.532 173.205" fill="#B7D5F9"/>
<path d="M523.342 174.326H521.03L520.811 173.627H524.047L524.233 174.231L523.371 178.148H522.467L523.342 174.326" fill="#699DEE"/>
<path d="M528.489 175.888C528.213 174.997 527.52 174.266 526.809 174.266C526.1 174.266 525.866 174.978 526.149 175.888C526.428 176.779 527.114 177.507 527.832 177.507C528.547 177.507 528.771 176.792 528.489 175.888ZM525.314 175.888C524.917 174.598 525.392 173.551 526.601 173.551C527.803 173.551 528.921 174.582 529.324 175.888C529.727 177.178 529.249 178.225 528.04 178.225C526.831 178.225 525.723 177.191 525.314 175.888Z" fill="#699DEE"/>
<path d="M534.734 177.046C534.626 176.685 534.32 176.388 534.025 176.388C533.716 176.388 533.627 176.685 533.735 177.046C533.85 177.414 534.153 177.704 534.448 177.704C534.757 177.704 534.849 177.408 534.734 177.046V177.046ZM533.154 177.046C532.957 176.42 533.233 175.891 533.883 175.891C534.527 175.891 535.125 176.413 535.322 177.046C535.516 177.672 535.24 178.201 534.59 178.201C533.946 178.201 533.348 177.679 533.154 177.046ZM531.239 174.735C531.124 174.374 530.825 174.077 530.526 174.077C530.217 174.077 530.128 174.374 530.24 174.735C530.355 175.103 530.654 175.394 530.949 175.394C531.258 175.394 531.35 175.097 531.239 174.735V174.735ZM533.141 173.631H533.791L531.83 178.15H531.179L533.141 173.631ZM529.655 174.735C529.461 174.109 529.734 173.58 530.384 173.58C531.032 173.58 531.626 174.103 531.823 174.735C532.017 175.361 531.741 175.891 531.091 175.891C530.447 175.891 529.849 175.368 529.655 174.735Z" fill="#699DEE"/>
<path d="M499.01 168.912L503.346 182.863H401.401C399.397 182.863 397.282 181.522 396.21 179.711C395.991 179.347 395.818 178.965 395.695 178.571L394.027 173.205C393.292 170.845 394.66 168.912 397.063 168.912H499.01" fill="#F99746"/>
<path d="M415.104 168.914L410.809 182.864H401.399C399.395 182.864 397.281 181.524 396.208 179.714L399.534 168.914H415.104" fill="#ED7D2B"/>
<path d="M441.786 168.914L437.487 182.864H421.919L426.218 168.914H441.786Z" fill="#ED7D2B"/>
<path d="M468.468 168.912L464.171 182.864H448.599L452.896 168.912H468.468Z" fill="#ED7D2B"/>
<path d="M495.149 168.916L490.85 182.866H475.279L479.574 168.916H495.149Z" fill="#ED7D2B"/>
<path d="M429.048 191.129H401.82L401.246 189.286H428.476L429.048 191.129" fill="#AFCDFB"/>
<path d="M423.21 196.289H403.425L402.85 194.445H422.635L423.21 196.289Z" fill="#AFCDFB"/>
<path d="M436.256 196.289H424.429L423.855 194.445H435.681L436.256 196.289Z" fill="#AFCDFB"/>
<path d="M456.366 196.289H438.299L437.727 194.445H455.791L456.366 196.289" fill="#AFCDFB"/>
<path d="M439.34 191.129H431.097L430.522 189.286H438.769L439.34 191.129" fill="#AFCDFB"/>
<path d="M472.14 191.13H442.16L441.587 189.286H471.569L472.14 191.13" fill="#AFCDFB"/>
<path d="M328.772 270.612H200.754L180.855 206.602H308.875L328.772 270.612Z" fill="#FAFDFF"/>
<path d="M310.706 238.606H198.924L190.467 211.401H302.247L310.706 238.606Z" fill="#4A75CB"/>
<path d="M217.304 216.93H198.369L197.918 215.479H216.853L217.304 216.93Z" fill="#CAE0FF"/>
<path d="M237.557 216.93H221.809L221.358 215.479H237.106L237.557 216.93Z" fill="#CAE0FF"/>
<path d="M274.209 216.93H241.66L241.209 215.479H273.758L274.209 216.93Z" fill="#CAE0FF"/>
<path d="M218.92 222.132H199.985L199.534 220.68H218.469L218.92 222.132Z" fill="#CAE0FF"/>
<path d="M239.174 222.132H223.426L222.975 220.68H238.722L239.174 222.132Z" fill="#CAE0FF"/>
<path d="M257.772 222.132H242.024L241.573 220.68H257.321L257.772 222.132" fill="#CAE0FF"/>
<path d="M295.09 222.735H262.542L262.091 221.284H294.64L295.09 222.735" fill="#CAE0FF"/>
<path d="M220.97 228.723H202.035L201.584 227.272H220.519L220.97 228.723Z" fill="#CAE0FF"/>
<path d="M241.223 228.723H225.475L225.024 227.272H240.772L241.223 228.723Z" fill="#CAE0FF"/>
<path d="M277.875 228.723H245.326L244.875 227.272H277.423L277.875 228.723" fill="#CAE0FF"/>
<path d="M222.586 233.924H203.651L203.2 232.473H222.135L222.586 233.924Z" fill="#CAE0FF"/>
<path d="M242.839 233.924H227.091L226.64 232.473H242.388L242.839 233.924Z" fill="#CAE0FF"/>
<path d="M261.438 233.924H245.69L245.239 232.473H260.987L261.438 233.924Z" fill="#CAE0FF"/>
<path d="M298.757 234.528H266.208L265.757 233.076H298.305L298.757 234.528Z" fill="#CAE0FF"/>
<path d="M269.511 247.096C265.964 247.096 263.96 249.931 265.043 253.415C266.126 256.898 269.892 259.734 273.439 259.734C276.985 259.734 278.99 256.898 277.907 253.415C276.823 249.931 273.057 247.096 269.511 247.096ZM273.878 261.143C269.539 261.143 264.931 257.677 263.606 253.415C262.281 249.153 264.733 245.684 269.072 245.684C273.411 245.684 278.019 249.153 279.344 253.415C280.669 257.677 278.216 261.143 273.878 261.143Z" fill="#A8D29F"/>
<path d="M272.538 257.346C272.239 257.324 271.922 257.198 271.651 256.987L267.188 253.512C266.585 253.042 266.371 252.3 266.709 251.85C267.047 251.402 267.81 251.416 268.413 251.886L271.566 254.341L273.116 250.71C273.341 250.185 274.053 250.068 274.707 250.446C275.361 250.827 275.709 251.563 275.484 252.089L273.447 256.865C273.326 257.146 273.057 257.324 272.709 257.346C272.653 257.351 272.596 257.351 272.538 257.346" fill="#A8D29F"/>
<path d="M246.996 247.096C243.449 247.096 241.445 249.931 242.528 253.415C243.611 256.898 247.377 259.734 250.924 259.734C254.47 259.734 256.475 256.898 255.392 253.415C254.309 249.931 250.543 247.096 246.996 247.096ZM251.363 261.143C247.024 261.143 242.416 257.677 241.091 253.415C239.766 249.153 242.219 245.684 246.557 245.684C250.896 245.684 255.504 249.153 256.829 253.415C258.154 257.677 255.702 261.143 251.363 261.143Z" fill="#A8D29F"/>
<path d="M250.023 257.346C249.724 257.324 249.407 257.198 249.136 256.987L244.673 253.512C244.07 253.042 243.856 252.3 244.194 251.85C244.532 251.402 245.295 251.416 245.898 251.886L249.052 254.341L250.601 250.71C250.826 250.185 251.538 250.068 252.192 250.446C252.846 250.827 253.194 251.563 252.97 252.089L250.933 256.865C250.812 257.146 250.542 257.324 250.195 257.346C250.138 257.351 250.081 257.351 250.023 257.346" fill="#A8D29F"/>
<path d="M223.675 247.096C220.128 247.096 218.124 249.931 219.207 253.415C220.29 256.898 224.056 259.734 227.603 259.734C231.149 259.734 233.154 256.898 232.071 253.415C230.988 249.931 227.221 247.096 223.675 247.096V247.096ZM228.041 261.143C223.703 261.143 219.095 257.677 217.77 253.415C216.445 249.153 218.897 245.684 223.236 245.684C227.575 245.684 232.183 249.153 233.507 253.415C234.832 257.677 232.38 261.143 228.041 261.143" fill="#A8D29F"/>
<path d="M226.702 257.346C226.403 257.324 226.086 257.198 225.814 256.987L221.352 253.512C220.749 253.042 220.534 252.3 220.873 251.85C221.211 251.402 221.974 251.416 222.577 251.886L225.73 254.341L227.28 250.71C227.504 250.185 228.217 250.068 228.871 250.446C229.525 250.827 229.873 251.563 229.649 252.089L227.611 256.865C227.491 257.146 227.22 257.324 226.873 257.346C226.817 257.351 226.76 257.351 226.702 257.346" fill="#A8D29F"/>
<path d="M291.233 247.096C287.687 247.096 285.683 249.931 286.764 253.415C287.848 256.898 291.615 259.734 295.161 259.734C298.707 259.734 300.71 256.898 299.629 253.415C298.545 249.931 294.779 247.096 291.233 247.096ZM295.599 261.143C291.261 261.143 286.654 257.677 285.329 253.415C284.002 249.153 286.456 245.684 290.794 245.684C295.132 245.684 299.74 249.153 301.064 253.415C302.391 257.677 299.938 261.143 295.599 261.143Z" fill="#F1A34F"/>
<path d="M293.59 254.68C292.979 254.68 292.325 254.188 292.138 253.587L291.116 250.301C290.93 249.701 291.278 249.209 291.889 249.209C292.5 249.209 293.154 249.701 293.341 250.301L294.362 253.587C294.549 254.188 294.201 254.68 293.59 254.68Z" fill="#F1A34F"/>
<path d="M294.512 257.257H294.272C293.726 257.257 293.143 256.818 292.976 256.281C292.809 255.744 293.117 255.305 293.663 255.305H293.904C294.45 255.305 295.033 255.744 295.2 256.281C295.367 256.818 295.056 257.257 294.512 257.257Z" fill="#F1A34F"/>
<path d="M601.522 257.867C601.522 257.867 617.718 274.357 618.481 280.565C619.245 286.773 610.724 296.461 610.724 296.461L601.522 257.867" fill="#ED7D2B"/>
<path d="M594.211 428.779C594.211 428.779 593.638 437.528 591.914 437.648C591.688 437.664 583.176 437.648 583.176 437.648L572.312 437.562C572.312 437.562 572.389 434.99 575.568 434.454C578.743 433.917 584.062 431.735 585.994 427.618C588.032 423.284 594.211 428.779 594.211 428.779" fill="#163560"/>
<path d="M618.405 428.83C618.405 428.83 617.833 437.579 616.11 437.701C615.882 437.718 607.373 437.698 607.373 437.698L596.507 437.615C596.507 437.615 596.583 435.043 599.762 434.507C602.938 433.97 608.257 431.788 610.192 427.668C612.225 423.337 618.405 428.83 618.405 428.83" fill="#163560"/>
<path d="M582.385 334.727C582.385 334.727 585.185 352.586 595.715 384.295C606.246 416.006 607.659 429.731 607.659 429.731L619.032 429.442C619.032 429.442 619.203 394.811 614.356 378.866C609.505 362.922 613.429 321.419 613.429 321.419L582.385 334.727" fill="#163560"/>
<path d="M576.882 322.317C576.882 322.317 576.415 349.217 581.084 382.254C585.745 415.295 584.11 429.308 584.11 429.308L595.457 429.706C595.457 429.706 602.311 396.679 600.403 380.144C598.495 363.609 609.816 323.438 609.816 323.438L576.882 322.317" fill="#1C468A"/>
<path d="M598.985 259.417L592.933 263.298L584.194 261.679C584.319 260.987 584.903 258.116 585.433 255.516C585.466 255.363 585.499 255.209 585.528 255.06C585.98 252.848 586.373 250.947 586.373 250.947L594.546 247.427L597.589 246.115C597.581 246.161 597.346 248.571 597.317 248.922C596.729 255.168 598.985 259.417 598.985 259.417" fill="#FFB27D"/>
<path d="M586.444 257.424C586.613 257.354 596.973 254.375 598.1 254.743C599.222 255.11 599.885 257.248 599.885 257.248L582.941 260.973C582.941 260.973 584.28 258.314 586.444 257.424" fill="#ED7D2B"/>
<path d="M614.17 325.718C612.398 333.58 583.191 334.45 575.679 327.294C574.825 326.479 574.791 322.693 575.124 317.592C575.777 307.62 577.841 292.625 577.935 284.96C577.984 281.26 578.509 277.477 579.205 274.04C580.69 266.717 582.938 260.974 582.938 260.974C582.938 260.974 597.215 256.474 599.882 257.25C612.73 260.989 615.942 317.858 614.17 325.718" fill="#F99746"/>
<path d="M575.13 317.591C575.78 307.619 577.843 292.624 577.938 284.959C577.986 281.259 578.512 277.475 579.207 274.039L587.79 272.57C587.79 272.57 596.107 306.248 575.13 317.591Z" fill="#ED7D2B"/>
<path d="M579.805 303.699C579.805 303.699 580.387 305.075 579.155 305.995C577.928 306.913 577.127 308.406 577.407 309.498C577.683 310.59 580.376 312.378 581.31 312.092C582.243 311.808 584.146 310.374 583.945 309.798C583.74 309.22 585.234 304.747 582.961 303.018C580.689 301.288 579.805 303.699 579.805 303.699" fill="#FFB27D"/>
<path d="M589.496 258.969C589.496 258.969 581.125 260.49 574.435 270.128C567.745 279.766 563.346 286.936 564.566 290.417C565.785 293.897 576.954 305.988 578.885 305.993C580.817 305.996 583.935 304.623 584.116 301.523C584.116 301.523 576.257 289.899 577.815 288.165C578.479 287.423 588.069 279.811 589.427 283.261C591.674 288.971 589.496 258.969 589.496 258.969Z" fill="#F99746"/>
<path d="M596.705 249.03C594.909 252.008 588.223 254.572 585.434 255.514C585.471 255.361 585.5 255.208 585.533 255.058C585.984 252.846 586.38 250.945 586.38 250.945L594.55 247.426C596.349 247.405 597.449 247.804 596.705 249.03Z" fill="#FCA56B"/>
<path d="M583.302 250.452C583.302 250.452 596.437 254.508 598.886 246.433C601.33 238.357 604.673 233.442 596.389 230.511C588.102 227.58 585.535 230.182 584.051 232.683C582.567 235.183 579.948 249.188 583.302 250.452Z" fill="#FFB27D"/>
<path d="M584.569 231.906C584.569 231.906 585.387 241.311 587.366 240.907C589.346 240.503 591.142 240.204 590.844 243.038C590.552 245.872 587.796 249.139 593.899 249.654C599.998 250.168 608.801 234.731 607.132 231.801C602.314 223.348 577.599 221.591 584.569 231.906" fill="#163560"/>
<path d="M311.515 162.314H313.918V160.023H311.515V162.314Z" fill="#F02A2A"/>
<path d="M311.515 157.68H313.918V155.389H311.515V157.68Z" fill="#F02A2A"/>
<path d="M311.515 153.046H313.918V150.754H311.515V153.046Z" fill="#F02A2A"/>
<path d="M311.515 148.411H313.918V146.12H311.515V148.411Z" fill="#F02A2A"/>
<path d="M311.515 143.78H313.918V141.488H311.515V143.78Z" fill="#F02A2A"/>
<path d="M311.515 139.146H313.918V136.854H311.515V139.146Z" fill="#F02A2A"/>
<path d="M311.515 134.511H313.918V132.22H311.515V134.511Z" fill="#F02A2A"/>
<path d="M311.515 129.877H313.918V127.586H311.515V129.877Z" fill="#F02A2A"/>
<path d="M311.515 125.243H313.918V122.952H311.515V125.243Z" fill="#F02A2A"/>
<path d="M311.515 120.609H313.918V118.317H311.515V120.609Z" fill="#F02A2A"/>
<path d="M311.515 115.977H313.918V113.686H311.515V115.977Z" fill="#F02A2A"/>
<path d="M311.515 111.343H313.918V109.052H311.515V111.343Z" fill="#F02A2A"/>
<path d="M311.515 106.709H313.918V104.418H311.515V106.709Z" fill="#F02A2A"/>
<path d="M311.515 102.074H313.918V99.7832H311.515V102.074Z" fill="#F02A2A"/>
<path d="M313.919 97.4407H311.516V95.1502H313.919V97.4407Z" fill="#F02A2A"/>
<path d="M313.919 92.8057H311.518V90.5146H313.919V92.8057Z" fill="#F02A2A"/>
<path d="M313.918 88.1748H311.513V85.8835H313.918V88.1748Z" fill="#F02A2A"/>
<path d="M313.92 83.539H311.517V81.2479H313.92V83.539Z" fill="#F02A2A"/>
<path d="M304.171 134.511H306.574V132.22H304.171V134.511Z" fill="#F02A2A"/>
<path d="M304.171 129.877H306.574V127.586H304.171V129.877Z" fill="#F02A2A"/>
<path d="M304.171 125.243H306.574V122.952H304.171V125.243Z" fill="#F02A2A"/>
<path d="M304.171 120.609H306.574V118.317H304.171V120.609Z" fill="#F02A2A"/>
<path d="M304.171 115.977H306.574V113.686H304.171V115.977Z" fill="#F02A2A"/>
<path d="M304.171 111.343H306.574V109.052H304.171V111.343Z" fill="#F02A2A"/>
<path d="M304.171 106.709H306.574V104.418H304.171V106.709Z" fill="#F02A2A"/>
<path d="M304.171 102.074H306.574V99.7832H304.171V102.074Z" fill="#F02A2A"/>
<path d="M306.574 97.4407H304.171V95.1502H306.574V97.4407Z" fill="#F02A2A"/>
<path d="M306.574 92.8057H304.173V90.5146H306.574V92.8057Z" fill="#F02A2A"/>
<path d="M306.572 88.1748H304.17V85.8835H306.572V88.1748Z" fill="#F02A2A"/>
<path d="M306.574 83.539H304.171V81.2479H306.574V83.539Z" fill="#F02A2A"/>
<path d="M296.689 162.314H299.091V160.023H296.689V162.314Z" fill="#F02A2A"/>
<path d="M296.689 157.68H299.091V155.389H296.689V157.68Z" fill="#F02A2A"/>
<path d="M296.689 153.046H299.091V150.754H296.689V153.046Z" fill="#F02A2A"/>
<path d="M296.689 148.411H299.091V146.12H296.689V148.411Z" fill="#F02A2A"/>
<path d="M296.689 143.78H299.091V141.488H296.689V143.78Z" fill="#F02A2A"/>
<path d="M296.689 139.146H299.091V136.854H296.689V139.146Z" fill="#F02A2A"/>
<path d="M296.689 134.511H299.091V132.22H296.689V134.511Z" fill="#F02A2A"/>
<path d="M296.689 129.877H299.091V127.586H296.689V129.877Z" fill="#F02A2A"/>
<path d="M296.689 125.243H299.091V122.952H296.689V125.243Z" fill="#F02A2A"/>
<path d="M296.689 120.609H299.091V118.317H296.689V120.609Z" fill="#F02A2A"/>
<path d="M296.689 115.977H299.091V113.686H296.689V115.977Z" fill="#F02A2A"/>
<path d="M296.689 111.343H299.091V109.052H296.689V111.343Z" fill="#F02A2A"/>
<path d="M296.689 106.709H299.091V104.418H296.689V106.709Z" fill="#F02A2A"/>
<path d="M296.689 102.074H299.091V99.7832H296.689V102.074Z" fill="#F02A2A"/>
<path d="M299.092 97.4407H296.689V95.1502H299.092V97.4407Z" fill="#F02A2A"/>
<path d="M299.094 92.8057H296.69V90.5146H299.094V92.8057Z" fill="#F02A2A"/>
<path d="M299.09 88.1748H296.687V85.8835H299.09V88.1748Z" fill="#F02A2A"/>
<path d="M299.093 83.539H296.69V81.2479H299.093V83.539Z" fill="#F02A2A"/>
<path d="M290.386 171.58H292.789V169.288H290.386V171.58Z" fill="#F02A2A"/>
<path d="M290.386 166.948H292.789V164.658H290.386V166.948Z" fill="#F02A2A"/>
<path d="M290.386 162.314H292.789V160.023H290.386V162.314Z" fill="#F02A2A"/>
<path d="M290.386 157.68H292.789V155.389H290.386V157.68Z" fill="#F02A2A"/>
<path d="M290.386 153.046H292.789V150.754H290.386V153.046Z" fill="#F02A2A"/>
<path d="M290.386 148.411H292.789V146.12H290.386V148.411Z" fill="#F02A2A"/>
<path d="M290.386 143.78H292.789V141.488H290.386V143.78Z" fill="#F02A2A"/>
<path d="M290.386 139.146H292.789V136.854H290.386V139.146Z" fill="#F02A2A"/>
<path d="M290.386 134.511H292.789V132.22H290.386V134.511Z" fill="#F02A2A"/>
<path d="M290.386 129.877H292.789V127.586H290.386V129.877Z" fill="#F02A2A"/>
<path d="M290.386 125.243H292.789V122.952H290.386V125.243Z" fill="#F02A2A"/>
<path d="M290.386 120.609H292.789V118.317H290.386V120.609Z" fill="#F02A2A"/>
<path d="M290.386 115.977H292.789V113.686H290.386V115.977Z" fill="#F02A2A"/>
<path d="M290.386 111.343H292.789V109.052H290.386V111.343Z" fill="#F02A2A"/>
<path d="M290.386 106.709H292.789V104.418H290.386V106.709Z" fill="#F02A2A"/>
<path d="M290.386 102.074H292.789V99.7832H290.386V102.074Z" fill="#F02A2A"/>
<path d="M292.789 97.4407H290.386V95.1502H292.789V97.4407Z" fill="#F02A2A"/>
<path d="M292.79 92.8057H290.388V90.5146H292.79V92.8057Z" fill="#F02A2A"/>
<path d="M292.789 88.1748H290.386V85.8835H292.789V88.1748Z" fill="#F02A2A"/>
<path d="M292.789 83.539H290.387V81.2479H292.789V83.539Z" fill="#F02A2A"/>
<path d="M282.072 129.877H284.475V127.586H282.072V129.877Z" fill="#F02A2A"/>
<path d="M282.072 125.243H284.475V122.952H282.072V125.243Z" fill="#F02A2A"/>
<path d="M282.072 120.609H284.475V118.317H282.072V120.609Z" fill="#F02A2A"/>
<path d="M282.072 115.977H284.475V113.686H282.072V115.977Z" fill="#F02A2A"/>
<path d="M282.072 111.343H284.475V109.052H282.072V111.343Z" fill="#F02A2A"/>
<path d="M282.072 106.709H284.475V104.418H282.072V106.709Z" fill="#F02A2A"/>
<path d="M282.072 102.074H284.475V99.7832H282.072V102.074Z" fill="#F02A2A"/>
<path d="M284.474 97.4407H282.072V95.1502H284.474V97.4407Z" fill="#F02A2A"/>
<path d="M284.475 92.8057H282.073V90.5146H284.475V92.8057Z" fill="#F02A2A"/>
<path d="M284.474 88.1748H282.072V85.8835H284.474V88.1748Z" fill="#F02A2A"/>
<path d="M284.475 83.539H282.073V81.2479H284.475V83.539Z" fill="#F02A2A"/>
<path d="M644.662 250.426H642.257V248.134H644.662V250.426Z" fill="#F02A2A"/>
<path d="M644.662 255.059H642.257V252.768H644.662V255.059Z" fill="#F02A2A"/>
<path d="M644.662 259.693H642.257V257.402H644.662V259.693Z" fill="#F02A2A"/>
<path d="M644.662 264.327H642.257V262.035H644.662V264.327Z" fill="#F02A2A"/>
<path d="M644.662 268.961H642.257V266.669H644.662V268.961Z" fill="#F02A2A"/>
<path d="M644.662 273.595H642.257V271.303H644.662V273.595Z" fill="#F02A2A"/>
<path d="M644.662 278.227H642.257V275.936H644.662V278.227Z" fill="#F02A2A"/>
<path d="M644.662 282.861H642.257V280.57H644.662V282.861Z" fill="#F02A2A"/>
<path d="M644.662 287.495H642.257V285.204H644.662V287.495Z" fill="#F02A2A"/>
<path d="M644.662 292.13H642.257V289.839H644.662V292.13Z" fill="#F02A2A"/>
<path d="M644.662 296.764H642.257V294.473H644.662V296.764Z" fill="#F02A2A"/>
<path d="M644.662 301.398H642.257V299.104H644.662V301.398Z" fill="#F02A2A"/>
<path d="M644.662 306.029H642.257V303.739H644.662V306.029Z" fill="#F02A2A"/>
<path d="M644.662 310.664H642.257V308.373H644.662V310.664Z" fill="#F02A2A"/>
<path d="M644.662 315.298H642.257V313.007H644.662V315.298Z" fill="#F02A2A"/>
<path d="M644.662 319.932H642.257V317.642H644.662V319.932Z" fill="#F02A2A"/>
<path d="M644.662 324.566H642.257V322.273H644.662V324.566Z" fill="#F02A2A"/>
<path d="M644.662 329.198H642.257V326.907H644.662V329.198Z" fill="#F02A2A"/>
<path d="M652.01 278.226H649.606V275.935H652.01V278.226Z" fill="#F02A2A"/>
<path d="M652.01 282.86H649.606V280.569H652.01V282.86Z" fill="#F02A2A"/>
<path d="M652.01 287.495H649.606V285.204H652.01V287.495Z" fill="#F02A2A"/>
<path d="M652.01 292.129H649.606V289.838H652.01V292.129Z" fill="#F02A2A"/>
<path d="M652.01 296.763H649.606V294.472H652.01V296.763Z" fill="#F02A2A"/>
<path d="M652.01 301.397H649.606V299.103H652.01V301.397Z" fill="#F02A2A"/>
<path d="M652.01 306.029H649.606V303.738H652.01V306.029Z" fill="#F02A2A"/>
<path d="M652.01 310.663H649.606V308.372H652.01V310.663Z" fill="#F02A2A"/>
<path d="M652.01 315.297H649.606V313.007H652.01V315.297Z" fill="#F02A2A"/>
<path d="M652.01 319.932H649.606V317.641H652.01V319.932Z" fill="#F02A2A"/>
<path d="M652.01 324.566H649.606V322.272H652.01V324.566Z" fill="#F02A2A"/>
<path d="M652.01 329.197H649.606V326.907H652.01V329.197Z" fill="#F02A2A"/>
<path d="M659.492 255.426H657.089V253.135H659.492V255.426Z" fill="#F02A2A"/>
<path d="M659.492 260.06H657.089V257.769H659.492V260.06Z" fill="#F02A2A"/>
<path d="M659.492 264.694H657.089V262.403H659.492V264.694Z" fill="#F02A2A"/>
<path d="M659.492 269.328H657.089V267.037H659.492V269.328Z" fill="#F02A2A"/>
<path d="M659.492 273.961H657.089V271.67H659.492V273.961Z" fill="#F02A2A"/>
<path d="M659.492 278.596H657.089V276.304H659.492V278.596Z" fill="#F02A2A"/>
<path d="M659.492 278.226H657.089V275.935H659.492V278.226Z" fill="#F02A2A"/>
<path d="M659.492 282.86H657.089V280.57H659.492V282.86Z" fill="#F02A2A"/>
<path d="M659.492 287.495H657.089V285.204H659.492V287.495Z" fill="#F02A2A"/>
<path d="M659.492 292.129H657.089V289.838H659.492V292.129Z" fill="#F02A2A"/>
<path d="M659.492 296.763H657.089V294.473H659.492V296.763Z" fill="#F02A2A"/>
<path d="M659.492 301.397H657.089V299.104H659.492V301.397Z" fill="#F02A2A"/>
<path d="M659.492 306.029H657.089V303.738H659.492V306.029Z" fill="#F02A2A"/>
<path d="M659.492 310.663H657.089V308.372H659.492V310.663Z" fill="#F02A2A"/>
<path d="M659.492 315.298H657.089V313.007H659.492V315.298Z" fill="#F02A2A"/>
<path d="M659.492 319.932H657.089V317.641H659.492V319.932Z" fill="#F02A2A"/>
<path d="M659.492 324.566H657.089V322.272H659.492V324.566Z" fill="#F02A2A"/>
<path d="M659.492 329.198H657.089V326.907H659.492V329.198Z" fill="#F02A2A"/>
<path d="M665.794 241.157H663.392V238.866H665.794V241.157Z" fill="#ED3434"/>
<path d="M665.794 250.792H663.392V248.501H665.794V250.792Z" fill="#F02A2A"/>
<path d="M665.794 255.426H663.392V253.134H665.794V255.426Z" fill="#F02A2A"/>
<path d="M665.794 260.059H663.392V257.768H665.794V260.059Z" fill="#F02A2A"/>
<path d="M665.794 264.693H663.392V262.402H665.794V264.693Z" fill="#F02A2A"/>
<path d="M665.794 269.327H663.392V267.036H665.794V269.327Z" fill="#F02A2A"/>
<path d="M665.794 273.961H663.392V271.669H665.794V273.961Z" fill="#F02A2A"/>
<path d="M665.794 278.595H663.392V276.303H665.794V278.595Z" fill="#F02A2A"/>
<path d="M665.794 283.227H663.392V280.936H665.794V283.227Z" fill="#F02A2A"/>
<path d="M665.794 287.861H663.392V285.57H665.794V287.861Z" fill="#F02A2A"/>
<path d="M665.794 292.495H663.392V290.205H665.794V292.495Z" fill="#F02A2A"/>
<path d="M665.794 297.13H663.392V294.839H665.794V297.13Z" fill="#F02A2A"/>
<path d="M665.794 301.764H663.392V299.473H665.794V301.764Z" fill="#F02A2A"/>
<path d="M665.794 306.398H663.392V304.105H665.794V306.398Z" fill="#F02A2A"/>
<path d="M665.794 311.03H663.392V308.739H665.794V311.03Z" fill="#F02A2A"/>
<path d="M665.794 315.664H663.392V313.373H665.794V315.664Z" fill="#F02A2A"/>
<path d="M665.794 320.299H663.392V318.008H665.794V320.299Z" fill="#F02A2A"/>
<path d="M665.794 324.933H663.392V322.642H665.794V324.933Z" fill="#F02A2A"/>
<path d="M665.794 329.567H663.392V327.273H665.794V329.567Z" fill="#F02A2A"/>
<path d="M665.794 329.197H663.392V326.906H665.794V329.197Z" fill="#ED3434"/>
<path d="M674.106 287.862H671.703V285.572H674.106V287.862Z" fill="#F02A2A"/>
<path d="M674.106 292.496H671.703V290.206H674.106V292.496Z" fill="#F02A2A"/>
<path d="M674.106 297.131H671.703V294.84H674.106V297.131Z" fill="#F02A2A"/>
<path d="M674.106 301.765H671.703V299.474H674.106V301.765Z" fill="#F02A2A"/>
<path d="M674.106 306.399H671.703V304.106H674.106V306.399Z" fill="#F02A2A"/>
<path d="M674.106 311.031H671.703V308.74H674.106V311.031Z" fill="#F02A2A"/>
<path d="M674.106 315.665H671.703V313.374H674.106V315.665Z" fill="#F02A2A"/>
<path d="M674.106 320.299H671.703V318.009H674.106V320.299Z" fill="#F02A2A"/>
<path d="M674.106 324.933H671.703V322.643H674.106V324.933Z" fill="#F02A2A"/>
<path d="M674.106 329.568H671.703V327.274H674.106V329.568Z" fill="#F02A2A"/>
<path d="M674.106 334.199H671.703V331.908H674.106V334.199Z" fill="#F02A2A"/>
</svg>
